<?xml version="1.0" encoding="utf-8"?>
<!-- Generator: Adobe Illustrator 24.0.3, SVG Export Plug-In . SVG Version: 6.00 Build 0)  -->
<svg version="1.2" baseProfile="tiny" id="레이어_1"
	 xmlns="http://www.w3.org/2000/svg" xmlns:xlink="http://www.w3.org/1999/xlink" x="0px" y="0px" viewBox="0 0 24 24"
	 xml:space="preserve">
<g id="XMLID_93_">
	<path fill="#3D3D3B" d="M17.58,22.85c-5.03,0-9.81-5.06-10.34-5.63c-0.02-0.01-0.06-0.05-0.1-0.1C6.57,16.59,1.48,11.73,1.54,6.8
		C1.56,4.81,2.39,3.09,4.01,1.7c0.91-0.69,2.32-0.85,3.46,0.28l2.51,2.51c0.71,0.71,0.84,1.42,0.82,1.89
		c-0.03,0.87-0.56,1.43-0.72,1.58C9.59,8.43,9.22,9.04,9.15,9.31c0.34,0.43,1.54,1.7,2.89,3c1.35,1.39,2.62,2.6,3.05,2.94
		c0.22-0.06,0.85-0.44,1.34-0.94c0.14-0.15,0.7-0.68,1.57-0.71c0.48-0.02,1.19,0.12,1.89,0.82l2.51,2.51
		c1.13,1.13,0.97,2.55,0.34,3.38C21.29,21.99,19.57,22.82,17.58,22.85C17.58,22.85,17.58,22.85,17.58,22.85z M5.57,2.68
		C5.24,2.68,5.01,2.85,5,2.86C3.74,3.95,3.08,5.29,3.06,6.82C3.01,11.17,7.98,15.81,8.19,16l0.18,0.18
		c0.19,0.21,4.76,5.14,9.12,5.14c0,0,0,0,0,0c1.61-0.02,2.95-0.67,4.04-1.94c0.01-0.02,0.5-0.68-0.21-1.38l-2.51-2.51
		c-0.25-0.25-0.52-0.38-0.76-0.37c-0.29,0.01-0.49,0.22-0.52,0.24c-0.08,0.08-1.71,1.72-2.93,1.36l-0.14-0.06
		c-0.71-0.37-3.38-3.14-3.49-3.26c-0.11-0.11-2.88-2.78-3.26-3.49L7.66,9.77C7.3,8.54,8.95,6.93,9.02,6.86
		c0.03-0.03,0.24-0.23,0.25-0.53c0.01-0.24-0.12-0.51-0.37-0.76L6.38,3.06C6.09,2.77,5.8,2.68,5.57,2.68z"/>
</g>
</svg>
