<svg xmlns="http://www.w3.org/2000/svg" xmlns:xlink="http://www.w3.org/1999/xlink" width="52" height="52" viewBox="0 0 52 52">
    <defs>
        <circle id="jjnkzfcw7a" cx="26" cy="26" r="26"/>
        <path id="5eb9po7xzc" d="M0 0.021L24.939 0.021 24.939 22.933 0 22.933z"/>
    </defs>
    <g fill="none" fill-rule="evenodd">
        <g>
            <g transform="translate(-205 -972) translate(205 972)">
                <mask id="sfj19gh01b" fill="#fff">
                    <use xlink:href="#jjnkzfcw7a"/>
                </mask>
                <use fill="#F2B100" transform="matrix(-1 0 0 1 52 0)" xlink:href="#jjnkzfcw7a"/>
                <g mask="url(#sfj19gh01b)">
                    <g>
                        <g>
                            <path fill="#FFF" d="M9.967 8.438l-.836 2.385h1.698L9.994 8.44l-.027-.002" transform="translate(13.5 14.5) translate(0 1.25)"/>
                            <g transform="translate(13.5 14.5) translate(0 1.25) translate(0 .043)">
                                <mask id="cq0h16znpd" fill="#fff">
                                    <use xlink:href="#5eb9po7xzc"/>
                                </mask>
                                <path fill="#FFF" d="M21.514 13.07c-.265.201-.643.147-.842-.12l-1.788-2.345-.384.384v1.53c0 .372-.3.672-.672.672-.372 0-.673-.3-.673-.673V7.562c0-.372.3-.674.673-.674.371 0 .672.302.672.674v1.752l2.114-2.113c.232-.231.607-.231.838 0 .23.23.23.606 0 .837l-1.708 1.708 1.89 2.482c.2.265.146.643-.12.843zm-5.299.08h-2.478c-.312 0-.563-.253-.563-.564 0-.036.004-.073.01-.108-.005-.035-.01-.07-.01-.107V7.56c0-.371.301-.673.673-.673.371 0 .673.302.673.674v4.461h1.695c.312 0 .563.252.563.563 0 .311-.251.563-.563.563zm-3.913.008c-.314.11-.659-.056-.769-.37l-.309-.882H8.737l-.31.883c-.11.313-.454.48-.768.369-.314-.11-.479-.454-.369-.769l1.787-4.793c.01-.029.023-.055.035-.082.073-.354.44-.626.884-.626.4 0 .735.221.851.524l.006.006 1.817 4.971c.11.315-.055.658-.368.769zm-5.97-.573c0 .16-.065.315-.178.428-.112.112-.267.177-.426.177h-.132c-.16 0-.316-.065-.427-.177-.114-.113-.178-.27-.178-.428V8.216H3.805c-.342 0-.62-.277-.62-.62 0-.342.278-.62.62-.62h3.647c.343 0 .62.278.62.62 0 .343-.277.62-.62.62h-1.12v4.369zM12.47.02C5.583.021 0 4.435 0 9.88c0 3.544 2.366 6.65 5.916 8.387-.261.974-.945 3.528-1.082 4.074-.169.679.249.67.522.487.215-.143 3.417-2.32 4.8-3.26.749.111 1.523.17 2.314.17 6.887 0 12.47-4.414 12.47-9.858 0-5.444-5.583-9.858-12.47-9.858z" mask="url(#cq0h16znpd)"/>
                            </g>
                        </g>
                        <path d="M0 0H25V25H0z" transform="translate(13.5 14.5)"/>
                    </g>
                </g>
            </g>
        </g>
    </g>
</svg>
