<svg xmlns="http://www.w3.org/2000/svg" xmlns:xlink="http://www.w3.org/1999/xlink" width="110" height="97" viewBox="0 0 110 97">
    <defs>
        <path id="icucrxjsga" d="M0 0.581L15.798 0.581 15.798 17.429 0 17.429z"/>
        <path id="izre1rxt6c" d="M0.533 0.581L14.226 0.581 14.226 17.41 0.533 17.41z"/>
        <path id="zj7kav4mze" d="M0.414 0.583L14.325 0.583 14.325 16.5 0.414 16.5z"/>
        <path id="m6qls3dakg" d="M0 97L110 97 110 1 0 1z"/>
    </defs>
    <g fill="none" fill-rule="evenodd">
        <g>
            <g>
                <g transform="translate(-24 -2505) translate(0 2271) translate(24 234)">
                    <path fill="#201613" d="M110 42c0 .552-.448 1-1 1s-1-.448-1-1 .448-1 1-1 1 .448 1 1M93 9c0 .552-.448 1-1 1s-1-.448-1-1 .448-1 1-1 1 .448 1 1"/>
                    <g>
                        <mask id="wl1919e15b" fill="#fff">
                            <use xlink:href="#icucrxjsga"/>
                        </mask>
                        <path fill="#201613" d="M15.798 8.718v.717h-2.924v7.994h-.922V1.889l-1.534-.824.415-.484 2.04.807v7.33h2.925zM9.57 12.572l-.65.86-4.424-5.054C3.701 9.938 1.841 12.786.29 14.13l-.29-.287c1.139-1.164 2.746-3.817 3.594-5.717.74-1.666 1.283-3.368 1.517-4.373L3.954 2.93l.307-.412 2.185 1.021c-.38 1.237-1.048 2.993-1.679 4.284l4.803 4.75z" mask="url(#wl1919e15b)"/>
                    </g>
                    <g transform="translate(27)">
                        <mask id="9ji54xuocd" fill="#fff">
                            <use xlink:href="#izre1rxt6c"/>
                        </mask>
                        <path fill="#201613" d="M8.859 5.528H13.3V1.89l-1.541-.824.417-.484 2.05.807v9.66H13.3V6.245H8.86v-.717zm5.367 6.2v5.682h-.907v-4.965H3.11v-.716h11.117zM5.104 3.18H1.078v-.717h9.267v.717H5.938l1.052.753c-.308.717-.762 1.542-1.288 2.33l4.969 3.405-.616.879-4.698-3.783c-.163.234-.344.466-.507.681C4.015 8.45 2.62 10.01.77 11.031l-.237-.323c1.325-.95 2.54-2.367 3.373-3.514.798-1.11 1.397-2.24 1.76-3.261l-.562-.753z" mask="url(#9ji54xuocd)"/>
                    </g>
                    <g transform="translate(56)">
                        <mask id="bz1i1rg3nf" fill="#fff">
                            <use xlink:href="#zj7kav4mze"/>
                        </mask>
                        <path fill="#201613" d="M12.983 1.392v12.014h-.925V1.896l-1.541-.827.416-.486 2.05.81zm1.342 14.424v.684H3.534v-3.975h-1.27v-.594H4.46v3.885h9.866zM7.76 6.464c0-1.978-1.342-3.29-3.21-3.29-1.868 0-3.21 1.312-3.21 3.29 0 1.997 1.342 3.292 3.21 3.292 1.868 0 3.21-1.295 3.21-3.292zm.925 0c0 2.392-1.687 3.975-4.135 3.975-2.43 0-4.136-1.583-4.136-3.975 0-2.248 1.634-3.975 4.136-3.975 2.575 0 4.135 1.708 4.135 3.975z" mask="url(#bz1i1rg3nf)"/>
                    </g>
                    <path fill="#201613" d="M16 33.976v.723h-2.903V43h-.914V27.32l-1.524-.832.413-.488 2.025.814v7.162H16zm-7.454-.344c0-2.17-1.29-4.087-3.316-4.087-2.025 0-3.315 1.916-3.315 4.087 0 2.17 1.29 4.087 3.315 4.087s3.316-1.917 3.316-4.087zm.913 0c0 2.621-1.631 4.774-4.229 4.774-2.58 0-4.23-2.153-4.23-4.774 0-2.677 1.542-4.775 4.23-4.775 2.473 0 4.229 1.9 4.229 4.775z"/>
                    <mask id="6aich28xfh" fill="#fff">
                        <use xlink:href="#m6qls3dakg"/>
                    </mask>
                    <path fill="#201613" d="M32.189 41.43h8.231v-3.45H32.19v3.45zm9.154-4.173v5.726h-.941v-.832h-8.194V43h-.942v-5.02h-1.291v-.723h11.368zm1.033-4.785v.722H30.602v-2.655H29.31v-.722h10.944v-2.095H29.882V27h11.312v3.54h-9.65v1.932h10.832zM28 35.632h16v-.723H28v.723zM69.068 26.814V34.1H72v.724h-2.932V43h-.906V27.32l-1.512-.832.41-.488 2.008.814zM58.244 29.49H57v-.724h8.123v.724H59.15v9.06c1.741-.054 5.846-.796 7.802-1.645l.195.379c-1.938 1.067-7.126 2.351-8.904 2.351V29.491zM87.3 41.42h8.028v-3.54H87.3v3.54zm8.286-11.677c0-1.272-1.68-2.052-4.54-2.052-2.86 0-4.54.78-4.54 2.052 0 1.271 1.68 2.034 4.54 2.034 2.86 0 4.54-.763 4.54-2.034zm.941 0c0 1.707-2.086 2.724-5.48 2.724-3.396 0-5.483-1.017-5.483-2.724 0-1.708 2.087-2.743 5.482-2.743s5.481 1.035 5.481 2.743zm-5.886 7.41v-2.216H83v-.726h16v.726h-7.437v2.216h4.686v5.83h-.94v-.837h-7.99V43h-.942v-5.121h-1.292v-.726h5.556zM14 54.94V71h-1.453V55.664l-1.53-.887.616-.777 2.367.94zm-3.224 11.466L9.769 67.67 5.22 62.79c-.02.036-.038.054-.056.09-1.174 1.845-2.33 3.4-4.586 5.39L0 67.636c1.827-1.718 2.964-3.599 3.765-5.19.728-1.448 1.157-2.55 1.417-3.653l-.41-.615H.579v-1.23h9.75v1.23h-3.97l.727.524c-.43 1.266-.784 2.17-1.287 3.11l4.978 4.594zM41.29 58.379c0-1.443-1.697-2.174-4.262-2.174-2.566 0-4.263.73-4.263 2.174 0 1.461 1.697 2.174 4.263 2.174 2.565 0 4.262-.713 4.262-2.174zm1.44 0c0 2.028-1.936 3.38-5.702 3.38-3.765 0-5.704-1.352-5.704-3.38 0-2.009 1.939-3.379 5.704-3.379 3.766 0 5.703 1.37 5.703 3.379zM45 63.457v1.241h-4.355V71h-1.44v-6.302h-4.429V71h-1.44v-6.302H29v-1.241h16zM14.542 94.81V96H2.916v-2.574H1.68v-1.19h10.15v-1.47H2.213v-1.19H13.27v3.85H4.355v1.384h10.187zM16 86.706v1.172H0v-1.172h11.811c.11-.508.184-1.05.24-1.663H1.199v-1.19h10.98c.038-.682.038-1.295.038-1.663H2.196V81H13.84c0 .49-.166 1.838-.406 2.94-.185.806-.35 1.524-.757 2.766H16zM43 79.94V96h-1.37V80.664l-1.437-.887.579-.777 2.228.94zm-2.315 11.303c-2.79 1.339-7.79 1.954-9.51 1.954v-5.878H30v-1.23h7.228v-3.146h-6.667V81.73h8.036v5.589h-6.054v4.304c1.79 0 5.07-.234 7.86-1.139l.282.759zM70 79.941v9.578h-1.394v-8.854l-1.467-.887.591-.778 2.27.941zm-.035 10.266V96h-1.377v-4.562h-9.443v-1.231h10.82zm-2.147-3.784c-2.842 1.411-7.742 2.498-9.602 2.498v-6.48H57v-1.214h2.611v6.083c1.662 0 4.989-.507 7.886-1.63l.321.743z" mask="url(#6aich28xfh)"/>
                </g>
            </g>
        </g>
    </g>
</svg>
