<svg xmlns="http://www.w3.org/2000/svg" xmlns:xlink="http://www.w3.org/1999/xlink" width="36" height="36" viewBox="0 0 36 36">
    <defs>
        <path id="g9drfi15ka" d="M0 0.284L11.739 0.284 11.739 14.978 0 14.978z"/>
    </defs>
    <g fill="none" fill-rule="evenodd">
        <g>
            <g>
                <g>
                    <path fill="#231916" d="M23.695 8.053c0 .508-.413.92-.92.92-.509 0-.921-.412-.921-.92s.412-.92.92-.92.921.412.921.92M6.679 25.037c0 .508-.413.92-.921.92s-.92-.412-.92-.92.412-.92.92-.92.92.412.92.92" transform="translate(-16 -26) translate(16 26) translate(0 2)"/>
                    <g transform="translate(-16 -26) translate(16 26) translate(0 2) translate(0 .252)">
                        <mask id="7cjutp02lb" fill="#fff">
                            <use xlink:href="#g9drfi15ka"/>
                        </mask>
                        <path fill="#231916" d="M11.739 1.097v13.88h-1.22V1.724L9.237.957l.517-.673 1.985.813zm-2.705 9.91l-.843 1.095-3.814-4.22c-.016.03-.032.046-.047.077-.985 1.595-1.954 2.939-3.846 4.658L0 12.07c1.531-1.485 2.485-3.11 3.157-4.486.61-1.25.97-2.204 1.188-3.157l-.343-.532H.484V2.832H8.66v1.063H5.33l.61.453c-.36 1.095-.657 1.876-1.079 2.689l4.173 3.97z" mask="url(#7cjutp02lb)"/>
                    </g>
                    <path fill="#231916" d="M26.634 21.057c0-1.234-1.439-1.86-3.611-1.86-2.173 0-3.61.626-3.61 1.86 0 1.251 1.437 1.861 3.61 1.861 2.172 0 3.61-.61 3.61-1.86zm1.218 0c0 1.736-1.64 2.892-4.83 2.892-3.188 0-4.83-1.156-4.83-2.892 0-1.719 1.642-2.89 4.83-2.89 3.19 0 4.83 1.171 4.83 2.89zm1.923 4.346v1.063h-3.688v5.393h-1.22v-5.393h-3.752v5.393h-1.218v-5.393h-3.674v-1.063h13.552z" transform="translate(-16 -26) translate(16 26) translate(0 2)"/>
                </g>
            </g>
        </g>
    </g>
</svg>
